<svg xmlns="http://www.w3.org/2000/svg" width="171" height="32" fill="none"><path fill="#F2BC23" d="M12.2.7C21.8.7 25.4 4 25.4 11.2a8 8 0 0 1-2.6 5.8c2.1.8 3.7 3.6 3.7 6.3 0 5.4-2.8 8-12.4 8H1.5C.5 31.3 0 31 0 30V2C0 1.3.5.8 1.5.8h10.7Zm1.2 24.2c2.5 0 3.7-.3 3.7-2.6 0-2.4-1.1-2.8-3.6-2.8h-3.3c-1 0-1.5.6-1.5 1.6v2.3c0 1 .6 1.5 1.5 1.5h3.2ZM13 14.2c2.5 0 3.7-.3 3.7-3s-1.2-3-3.7-3h-2.7c-1 0-1.5.5-1.5 1.3V13c0 .8.5 1.3 1.5 1.3H13ZM77.6 11.6c-1 .1-1.5-.3-1.7-1.1-.3-1.8-2-3-4.4-3-2 0-3.2 1-3 2C69.2 13 85.3 13 85.3 23c0 1.4-1.7 9.1-13.8 9.1-10.7 0-13-6-13.2-9.5 0-.7.4-1.2 1.3-1.4l5.7-1.1c1-.2 1.6.2 1.7 1.1.2 2.1 2.1 3.4 4.5 3.4 2.5 0 4.3-1.3 4-2.5-1-3.7-16.3-2.9-16.3-13 0-1.2 1-9 12.3-9 10.5 0 13 5.9 13.2 9 0 .8-.4 1.3-1.3 1.5l-5.8 1ZM96.2.7c1 0 1.5.5 1.5 1.3v11c0 .8.6 1.3 1.5 1.3h5c1 0 1.4-.5 1.4-1.3V2c0-.8.6-1.3 1.6-1.3h5.7c1 0 1.5.4 1.5 1.3v28c0 .9-.5 1.3-1.5 1.3h-5.7c-1 0-1.5-.4-1.5-1.3v-6.9c0-.9-.6-1.3-1.6-1.3h-4.9c-1 0-1.5.4-1.5 1.3v7c0 .8-.5 1.2-1.5 1.2h-5.7c-1 0-1.5-.4-1.5-1.3V2c0-.9.5-1.3 1.5-1.3h5.7ZM142.4.7c1 0 1.5.4 1.5 1.3v5c0 .8-.5 1.2-1.5 1.2h-12.3c-1 0-1.5.5-1.5 1.4v1.3c0 .9.5 1.4 1.5 1.4h7.9c1 0 1.5.4 1.5 1.3v4.9c0 .8-.5 1.3-1.5 1.3h-8c-.9 0-1.4.4-1.4 1.3v1.4c0 .8.5 1.3 1.5 1.3h12.3c1 0 1.5.5 1.5 1.3v5c0 .8-.5 1.3-1.5 1.3H121c-1 0-1.5-.5-1.5-1.4V2c0-.9.6-1.3 1.5-1.3h21.4ZM155 .7c1 0 1.6.4 1.6 1.3v20.5c0 .8.6 1.3 1.5 1.3h11.4c1 0 1.5.5 1.5 1.3v5c0 .8-.5 1.3-1.5 1.3h-20.1c-1 0-1.6-.5-1.6-1.4V2c0-.9.6-1.3 1.6-1.3h5.7ZM53.5.6H31c-1 0-1.5.4-1.5 1.3v19.5c0 2.8.7 10.6 12.8 10.6 12 0 12.8-7.8 12.8-10.6V1.9C55 1 54.6.6 53.5.6ZM41.4 24.7c-4.5 0-4.5-4.2-4.5-4.2v-2.3c4.5 0 4.5 4.5 4.5 4.5v2Zm0-7.9c-4.5 0-4.5-4.8-4.5-4.8V5.5c4.5 0 4.5 4.5 4.5 4.5v6.8Zm1.8-6.8s0-4.5 4.4-4.5v2.3s0 4.3-4.4 4.3v-2Zm4.5 10.5s0 4.2-4.5 4.2V18s0-4.5 4.5-4.5v7.1ZM166.1 3.1c0-1.3 1-2.4 2.5-2.4 1.3 0 2.4 1 2.4 2.4 0 1.3-1 2.4-2.4 2.4s-2.5-1-2.5-2.4Zm4.6 0c0-1.2-1-2.1-2.1-2.1-1.3 0-2.2 1-2.2 2.1 0 1.2 1 2.2 2.2 2.2 1.2 0 2.1-1 2.1-2.2Zm-3.1-1.3h1.1c.6 0 1 .3 1 .8 0 .4-.3.7-.6.8l.7.9h-.6l-.6-.8h-.5v.8h-.5V1.8Zm1 1.3c.4 0 .6-.2.6-.4 0-.3-.2-.4-.5-.4h-.6V3h.6Z"/></svg>